<svg xmlns="http://www.w3.org/2000/svg" xmlns:xlink="http://www.w3.org/1999/xlink" width="1080" zoomAndPan="magnify" viewBox="0 0 810 809.999993" height="1080" preserveAspectRatio="xMidYMid meet" version="1.0"><defs><g/></defs><g fill="#ffffff" fill-opacity="1"><g transform="translate(137.381027, 498.938637)"><g><path d="M 171 -71.804688 L 171 -206.183594 L 130.054688 -206.183594 L 130.054688 -72.09375 C 130.054688 -28.835938 63.152344 -28.835938 63.152344 -72.09375 L 63.152344 -206.183594 L 21.914062 -206.183594 L 21.914062 -71.804688 C 21.914062 26.242188 171 26.242188 171 -71.804688 Z M 171 -71.804688 "/></g></g></g><g fill="#ffffff" fill-opacity="1"><g transform="translate(330.875272, 498.938637)"><g><path d="M 154.277344 -158.3125 L 159.179688 -200.703125 C 146.777344 -206.183594 132.9375 -208.777344 118.519531 -208.777344 C -21.050781 -208.777344 -21.339844 0.578125 118.519531 0.578125 C 132.9375 0.578125 151.105469 -2.882812 163.792969 -8.074219 L 158.3125 -50.753906 C 150.527344 -46.714844 136.398438 -41.523438 118.519531 -41.523438 C 36.910156 -41.523438 36.910156 -167.253906 118.519531 -167.253906 C 136.398438 -167.253906 146.492188 -162.351562 154.277344 -158.3125 Z M 154.277344 -158.3125 "/></g></g></g><g fill="#ffffff" fill-opacity="1"><g transform="translate(504.472229, 498.938637)"><g><path d="M 64.304688 -112.175781 L 168.695312 4.324219 L 179.652344 4.324219 L 179.652344 -205.894531 L 138.128906 -205.894531 L 138.128906 -89.394531 L 34.027344 -210.507812 L 23.070312 -210.507812 L 23.070312 0 L 64.304688 0 Z M 64.304688 -112.175781 "/></g></g></g><path fill="#ffffff" d="M 345.097656 395.234375 L 354.097656 395.234375 L 354.097656 398.234375 L 345.097656 398.234375 M 357.097656 395.234375 L 366.097656 395.234375 L 366.097656 398.234375 L 357.097656 398.234375 M 369.097656 395.234375 L 378.097656 395.234375 L 378.097656 398.234375 L 369.097656 398.234375 M 381.097656 395.234375 L 390.097656 395.234375 L 390.097656 398.234375 L 381.097656 398.234375 M 393.097656 395.234375 L 402.097656 395.234375 L 402.097656 398.234375 L 393.097656 398.234375 M 405.097656 395.234375 L 414.097656 395.234375 L 414.097656 398.234375 L 405.097656 398.234375 M 417.097656 395.234375 L 426.097656 395.234375 L 426.097656 398.234375 L 417.097656 398.234375 M 429.097656 395.234375 L 438.097656 395.234375 L 438.097656 398.234375 L 429.097656 398.234375 M 441.097656 395.234375 L 450.097656 395.234375 L 450.097656 398.234375 L 441.097656 398.234375 M 453.097656 395.234375 L 462.097656 395.234375 L 462.097656 398.234375 L 453.097656 398.234375 M 465.097656 395.234375 L 474.097656 395.234375 L 474.097656 398.234375 L 465.097656 398.234375 M 477.097656 395.234375 L 486.097656 395.234375 L 486.097656 398.234375 L 477.097656 398.234375 M 489.097656 395.234375 L 498.097656 395.234375 L 498.097656 398.234375 L 489.097656 398.234375 " fill-opacity="1" fill-rule="nonzero"/><path fill="#ffffff" d="M 451.585938 337.398438 L 451.585938 346.398438 L 448.585938 346.398438 L 448.585938 337.398438 M 451.585938 349.398438 L 451.585938 358.398438 L 448.585938 358.398438 L 448.585938 349.398438 M 451.585938 361.398438 L 451.585938 370.398438 L 448.585938 370.398438 L 448.585938 361.398438 M 451.585938 373.398438 L 451.585938 382.398438 L 448.585938 382.398438 L 448.585938 373.398438 M 451.585938 385.398438 L 451.585938 394.398438 L 448.585938 394.398438 L 448.585938 385.398438 M 451.585938 397.398438 L 451.585938 406.398438 L 448.585938 406.398438 L 448.585938 397.398438 M 451.585938 409.398438 L 451.585938 418.398438 L 448.585938 418.398438 L 448.585938 409.398438 M 451.585938 421.398438 L 451.585938 430.398438 L 448.585938 430.398438 L 448.585938 421.398438 M 451.585938 433.398438 L 451.585938 442.398438 L 448.585938 442.398438 L 448.585938 433.398438 M 451.585938 445.398438 L 451.585938 454.398438 L 448.585938 454.398438 L 448.585938 445.398438 M 451.585938 457.398438 L 451.585938 466.398438 L 448.585938 466.398438 L 448.585938 457.398438 M 451.585938 469.398438 L 451.585938 478.398438 L 448.585938 478.398438 L 448.585938 469.398438 M 451.585938 481.398438 L 451.585938 490.398438 L 448.585938 490.398438 L 448.585938 481.398438 " fill-opacity="1" fill-rule="nonzero"/><path stroke-linecap="butt" transform="matrix(0.75, 0, 0, 0.75, 161.449318, 514.917474)" fill="none" stroke-linejoin="miter" d="M 2.999868 2.00066 L 692.958236 2.00066 " stroke="#ffffff" stroke-width="4" stroke-opacity="1" stroke-miterlimit="4"/><path stroke-linecap="round" transform="matrix(0.75, 0, 0, 0.75, 161.449318, 514.917474)" fill="none" stroke-linejoin="round" d="M 1.999868 -3.999341 L 1.999868 8.00066 " stroke="#ffffff" stroke-width="4" stroke-opacity="1" stroke-miterlimit="4"/><path stroke-linecap="round" transform="matrix(0.75, 0, 0, 0.75, 161.449318, 514.917474)" fill="none" stroke-linejoin="round" d="M 693.958236 -3.999341 L 693.958236 8.00066 " stroke="#ffffff" stroke-width="4" stroke-opacity="1" stroke-miterlimit="4"/><path stroke-linecap="butt" transform="matrix(0.000000001309, 0.75, -0.75, 0.000000001309, 147.143096, 293.860757)" fill="none" stroke-linejoin="miter" d="M 2.998157 1.998087 L 271.336712 1.998087 " stroke="#ffffff" stroke-width="4" stroke-opacity="1" stroke-miterlimit="4"/><path stroke-linecap="round" transform="matrix(0.000000001309, 0.75, -0.75, 0.000000001309, 147.143096, 293.860757)" fill="none" stroke-linejoin="round" d="M 1.998157 -4.001914 L 1.998157 7.998087 " stroke="#ffffff" stroke-width="4" stroke-opacity="1" stroke-miterlimit="4"/><path stroke-linecap="round" transform="matrix(0.000000001309, 0.75, -0.75, 0.000000001309, 147.143096, 293.860757)" fill="none" stroke-linejoin="round" d="M 272.336712 -4.001913 L 272.336712 7.998087 " stroke="#ffffff" stroke-width="4" stroke-opacity="1" stroke-miterlimit="4"/><path stroke-linecap="butt" transform="matrix(0.487303, 0.570119, -0.570119, 0.487303, 548.360376, 283.721754)" fill="none" stroke-linejoin="miter" d="M 3.000868 1.998027 L 175.021816 2.001656 " stroke="#ffffff" stroke-width="4" stroke-opacity="1" stroke-miterlimit="4"/><path stroke-linecap="round" transform="matrix(0.487303, 0.570119, -0.570119, 0.487303, 548.360376, 283.721754)" fill="none" stroke-linejoin="round" d="M 2.002797 -4.000642 L 2.000811 8.001728 " stroke="#ffffff" stroke-width="4" stroke-opacity="1" stroke-miterlimit="4"/><path stroke-linecap="round" transform="matrix(0.487303, 0.570119, -0.570119, 0.487303, 548.360376, 283.721754)" fill="none" stroke-linejoin="round" d="M 176.021873 -4.002045 L 176.019887 8.000325 " stroke="#ffffff" stroke-width="4" stroke-opacity="1" stroke-miterlimit="4"/><path fill="#ffffff" d="M 231.511719 492.171875 L 231.539062 483.171875 L 234.539062 483.179688 L 234.511719 492.179688 M 231.546875 480.171875 L 231.574219 471.171875 L 234.574219 471.179688 L 234.546875 480.179688 M 231.582031 468.171875 L 231.609375 459.171875 L 234.609375 459.179688 L 234.582031 468.179688 M 231.617188 456.171875 L 231.644531 447.171875 L 234.644531 447.179688 L 234.617188 456.179688 M 231.652344 444.171875 L 231.679688 435.171875 L 234.679688 435.179688 L 234.652344 444.179688 M 231.691406 432.171875 L 231.71875 423.171875 L 234.71875 423.179688 L 234.691406 432.179688 M 231.726562 420.171875 L 231.753906 411.171875 L 234.753906 411.179688 L 234.726562 420.179688 M 231.761719 408.171875 L 231.789062 399.171875 L 234.789062 399.179688 L 234.761719 408.179688 M 231.796875 396.171875 L 231.824219 387.171875 L 234.824219 387.183594 L 234.796875 396.179688 M 231.835938 384.171875 L 231.859375 375.171875 L 234.859375 375.183594 L 234.835938 384.183594 M 231.871094 372.171875 L 231.898438 363.171875 L 234.898438 363.183594 L 234.871094 372.183594 M 231.90625 360.171875 L 231.933594 351.171875 L 234.933594 351.183594 L 234.90625 360.183594 M 231.941406 348.171875 L 231.96875 339.171875 L 234.96875 339.183594 L 234.941406 348.183594 M 231.976562 336.171875 L 232.003906 327.171875 L 235.003906 327.183594 L 234.976562 336.183594 M 232.015625 324.171875 L 232.042969 315.171875 L 235.042969 315.183594 L 235.015625 324.183594 M 232.050781 312.171875 L 232.074219 304.28125 L 235.074219 304.292969 L 235.050781 312.183594 " fill-opacity="1" fill-rule="nonzero"/></svg>